HIERARCHY
ROOT root
{
	OFFSET 0.000000 0.000000 0.000000
	CHANNELS 6 Xposition Yposition Zposition Zrotation Yrotation Xrotation
	JOINT lhip
	{
		OFFSET 0.058581 -0.082280 -0.017664
		CHANNELS 3 Zrotation Yrotation Xrotation
		JOINT lknee
		{
			OFFSET 0.043451 -0.386469 0.008037
			CHANNELS 3 Zrotation Yrotation Xrotation
			JOINT lankle
			{
				OFFSET -0.014790 -0.426874 -0.037428
				CHANNELS 3 Zrotation Yrotation Xrotation
				JOINT ltoe
				{
					OFFSET 0.041054 -0.060286 0.122042
					CHANNELS 3 Zrotation Yrotation Xrotation
					End Site
					{
						OFFSET 0.000000 0.000000 0.000000
					}
				}
			}
		}
	}
	JOINT rhip
	{
		OFFSET -0.060310 -0.090513 -0.013543
		CHANNELS 3 Zrotation Yrotation Xrotation
		JOINT rknee
		{
			OFFSET -0.043257 -0.383688 -0.004843
			CHANNELS 3 Zrotation Yrotation Xrotation
			JOINT rankle
			{
				OFFSET 0.019056 -0.420046 -0.034562
				CHANNELS 3 Zrotation Yrotation Xrotation
				JOINT rtoe
				{
					OFFSET -0.034840 -0.062106 0.130323
					CHANNELS 3 Zrotation Yrotation Xrotation
					End Site
					{
						OFFSET 0.000000 0.000000 0.000000
					}
				}
			}
		}
	}
	JOINT lowerback
	{
		OFFSET 0.004439 0.124404 -0.038385
		CHANNELS 3 Zrotation Yrotation Xrotation
		JOINT upperback
		{
			OFFSET 0.004488 0.137956 0.026820
			CHANNELS 3 Zrotation Yrotation Xrotation
			JOINT chest
			{
				OFFSET -0.002265 0.056032 0.002855
				CHANNELS 3 Zrotation Yrotation Xrotation
				JOINT lowerneck
				{
					OFFSET -0.013390 0.211636 -0.033468
					CHANNELS 3 Zrotation Yrotation Xrotation
					JOINT upperneck
					{
						OFFSET 0.010113 0.088937 0.050410
						CHANNELS 3 Zrotation Yrotation Xrotation
						End Site
						{
							OFFSET 0.000000 0.000000 0.000000
						}
					}
				}
				JOINT lclavicle
				{
					OFFSET 0.071702 0.114000 -0.018898
					CHANNELS 3 Zrotation Yrotation Xrotation
					JOINT lshoulder
					{
						OFFSET 0.122921 0.045205 -0.019046
						CHANNELS 3 Zrotation Yrotation Xrotation
						JOINT lelbow
						{
							OFFSET 0.255332 -0.015649 -0.022946
							CHANNELS 3 Zrotation Yrotation Xrotation
							JOINT lwrist
							{
								OFFSET 0.265709 0.012698 -0.007375
								CHANNELS 3 Zrotation Yrotation Xrotation
								End Site
								{
									OFFSET 0.000000 0.000000 0.000000
								}
							}
						}
					}
				}
				JOINT rclavicle
				{
					OFFSET -0.082954 0.112472 -0.023707
					CHANNELS 3 Zrotation Yrotation Xrotation
					JOINT rshoulder
					{
						OFFSET -0.113228 0.046853 -0.008472
						CHANNELS 3 Zrotation Yrotation Xrotation
						JOINT relbow
						{
							OFFSET -0.260127 -0.014369 -0.031269
							CHANNELS 3 Zrotation Yrotation Xrotation
							JOINT rwrist
							{
								OFFSET -0.269108 0.006794 -0.006027
								CHANNELS 3 Zrotation Yrotation Xrotation
								End Site
								{
									OFFSET 0.000000 0.000000 0.000000
								}
							}
						}
					}
				}
			}
		}
	}
}
MOTION
Frames: 16
Frame Time: 0.033333
2.712237 0.089002 0.930681 -97.755597 2.140288 101.222182 5.595872 -1.582932 -17.462146 -6.926194 5.561059 54.286207 -0.129567 9.349349 -16.632947 0.000000 -0.000000 0.000000 3.714677 3.622246 -18.184690 -0.974333 -5.578446 29.521117 -2.208336 -5.940091 -31.522087 0.000000 -0.000000 0.000000 0.698261 -0.141212 22.922821 3.420990 1.040456 -1.843504 1.546148 0.462614 -0.250399 -3.195083 6.160933 -16.719195 -3.861685 -2.487700 3.153102 -25.243207 -1.420467 -0.063244 -56.708371 -7.332523 18.493123 2.801023 -68.799021 21.364118 6.052812 -13.351291 -16.879853 27.850151 5.267303 2.883200 51.773244 3.535329 14.990733 -13.461988 38.964623 2.053477 1.509247 9.266344 -6.946793 
2.674701 0.093689 0.922942 -97.953908 1.326108 101.244934 5.790853 -2.549379 -22.754360 -7.141881 7.779483 58.684284 0.189762 7.876963 -18.640626 0.000000 -0.000000 0.000000 3.620731 2.921390 -16.064112 -1.697903 -4.527165 30.496947 -2.338964 -6.706127 -33.626920 0.000000 -0.000000 0.000000 0.381066 1.186646 23.730331 3.533472 0.645169 -1.963122 1.711837 0.813556 -0.264607 -3.660656 5.366721 -17.009806 -3.822692 -2.680522 2.188944 -25.323389 -1.539612 0.176042 -57.410245 -6.587058 18.686979 2.998495 -70.982328 21.809558 7.186965 -13.157268 -18.798756 27.642886 6.133091 3.307750 51.392955 3.410975 15.017455 -13.879029 40.406507 1.999930 1.018531 9.530431 -7.745556 
2.636527 0.097839 0.913368 -97.826128 0.211720 101.169817 5.918453 -3.271660 -28.652058 -7.337083 9.873859 61.212997 0.638508 6.878164 -20.790680 0.000000 -0.000000 0.000000 2.910490 2.081275 -14.285119 -2.148209 -3.673784 32.571755 -1.834008 -7.203582 -35.888340 0.000000 -0.000000 0.000000 0.079295 2.522115 24.802806 3.454743 0.418292 -2.462895 1.712345 1.093540 -0.009193 -3.930456 4.528012 -17.355551 -3.785782 -3.398871 1.563357 -25.172418 -1.574733 0.346709 -57.913595 -5.911203 18.784629 1.860896 -72.853464 23.192927 8.251748 -12.993757 -20.405708 27.384616 6.811347 3.393328 51.457509 3.755245 15.090352 -14.386966 41.908634 1.364257 0.376540 9.666309 -8.217250 
2.585968 0.102083 0.899440 -97.429157 -1.167209 100.466897 6.338861 -3.353927 -35.967919 -7.763479 12.428023 61.179418 1.400241 5.584936 -22.948950 0.000000 -0.000000 0.000000 1.416787 0.594146 -12.118199 -2.085408 -2.588447 37.134700 -0.447133 -6.513315 -37.926985 0.000000 -0.000000 0.000000 0.171018 4.248570 26.509401 3.171993 0.403545 -2.667924 1.435754 1.639405 0.261852 -4.199239 3.323704 -17.923779 -3.795747 -5.000927 1.248299 -25.334205 -1.579363 0.473551 -57.985663 -4.796262 18.665005 0.621322 -74.539243 24.165860 10.027641 -13.067405 -22.376941 27.287121 7.744328 3.427880 51.402040 4.678783 15.062377 -15.907261 44.773668 -0.482982 -0.818591 10.013042 -8.385984 
2.553027 0.104193 0.890292 -97.452295 -1.893206 99.815139 6.747564 -2.903660 -40.011069 -8.339354 13.978438 59.327237 1.701817 4.738162 -23.706945 0.000000 -0.000000 0.000000 0.256678 -0.328980 -10.496598 -1.670444 -1.597972 40.054113 0.485519 -5.419348 -38.384592 0.000000 -0.000000 0.000000 0.298743 5.447846 27.366456 2.912171 0.553123 -2.339078 1.261290 2.089113 0.323735 -4.355131 2.553649 -18.047809 -3.779449 -6.048838 0.977635 -25.482585 -1.339620 0.576745 -57.940436 -3.632117 18.275130 1.053607 -75.451101 23.306973 11.234965 -12.969405 -23.455267 27.151978 8.496594 3.563430 51.173890 5.508354 15.061488 -17.388342 47.424676 -2.060579 -1.890202 10.299965 -8.377240 
2.504604 0.106812 0.877335 -97.834282 -2.847277 99.188400 7.313576 -1.975061 -45.018343 -9.525247 15.832389 54.741635 1.619482 3.572183 -23.757118 0.000000 -0.000000 0.000000 -1.511384 -1.754100 -7.412308 -1.023588 0.260696 42.099206 1.482634 -3.554432 -38.795395 0.000000 -0.000000 0.000000 0.210815 7.344449 27.589197 2.556189 0.663896 -1.514468 1.083050 2.667672 0.404600 -4.433128 1.796296 -17.778265 -3.693051 -7.346635 0.399252 -25.218819 -0.157708 0.892715 -57.608605 -0.828071 17.220884 1.054948 -78.073819 23.534707 12.988817 -12.595169 -24.105601 26.523570 9.273656 3.691848 51.070591 6.952760 15.148803 -20.250317 53.247245 -3.887462 -3.714936 10.872764 -7.564649 
2.450076 0.109498 0.865102 -98.623249 -3.809089 99.155778 7.890488 -1.242111 -49.248053 -10.889747 17.024134 48.000000 1.068785 2.627493 -22.625420 0.000000 -0.000000 0.000000 -3.514802 -3.004503 -2.953046 -0.576997 2.440658 40.763788 2.258831 -1.705357 -39.084030 0.000000 -0.000000 0.000000 -0.382418 9.395606 26.895513 2.163712 0.744082 -1.001027 0.843725 3.286225 0.628597 -4.323128 1.439668 -17.197338 -3.437605 -8.621624 -0.351471 -23.674245 2.594516 1.570883 -56.421612 3.798918 15.844878 -11.728691 -83.948921 37.618746 14.179863 -12.502901 -25.086745 24.878084 8.892825 3.190658 52.430661 8.598135 15.455306 -25.241585 62.404557 -6.809311 -4.936081 11.528608 -7.446671 
2.388462 0.111653 0.856058 -99.954306 -4.681623 99.689237 8.623679 -1.045858 -52.125813 -11.399577 18.046428 40.395783 0.180379 2.631467 -19.813696 0.000000 -0.000000 0.000000 -6.041820 -3.964747 2.580106 -0.329780 4.486422 36.367413 3.433052 0.381017 -37.719397 0.000000 -0.000000 0.000000 -1.250487 11.576275 25.707181 1.499503 0.850940 -0.925746 0.386219 4.245034 0.789691 -4.189374 1.128396 -16.518707 -2.738192 -9.989846 -1.282769 -20.650862 6.253977 2.678043 -54.041191 9.514996 14.995565 -118.643288 -85.403185 144.891793 15.427155 -12.975718 -28.139910 22.169889 7.342773 2.097058 55.817707 9.742584 16.174851 -38.177752 73.352260 -18.255252 -5.278284 12.227458 -9.039297 
2.318786 0.112989 0.852292 -101.464375 -5.019457 100.698599 9.480191 -1.114701 -53.780541 -10.658881 19.595484 35.223549 -0.347601 3.584042 -16.561195 0.000000 -0.000000 0.000000 -8.732923 -5.003866 7.795695 -0.160518 6.548754 31.410793 6.050836 3.126536 -31.897649 0.000000 -0.000000 0.000000 -1.611238 14.005609 24.035569 0.459703 0.847175 -0.894606 -0.123381 5.112273 0.680629 -4.254992 0.171683 -15.616117 -1.503050 -10.831326 -2.460748 -17.235644 9.181560 4.246443 -51.175435 15.084226 14.727360 -143.682060 -78.760977 169.117448 16.906724 -13.399997 -31.141608 19.128801 5.854848 1.235660 59.905528 9.930508 17.061557 -80.903568 80.687870 -60.194274 -5.909095 13.023168 -9.979804 
2.222398 0.115183 0.854599 -103.057596 -4.619955 102.545441 9.386566 -0.825548 -54.473276 -9.157786 21.264261 36.782110 0.652427 2.401317 -15.903640 0.000000 -0.000000 0.000000 -10.954669 -5.882843 10.231076 -1.288415 8.968204 29.847988 13.955260 7.707627 -14.325161 0.000000 -0.000000 0.000000 -2.265470 16.546731 21.572304 -1.144965 0.579729 0.022278 0.124602 5.197956 -1.801770 -5.420463 -4.016624 -13.266551 2.051663 -7.658716 -3.602052 -13.332422 8.076522 6.123880 -52.188678 24.697153 9.300957 -139.370703 -72.894344 164.536501 19.072395 -15.185742 -31.583408 14.187202 8.415628 0.058692 65.756068 5.204819 14.711123 -140.875327 77.954123 -120.052273 -2.686915 14.394765 -5.885584 
2.141623 0.117368 0.859595 -102.335142 -4.406474 103.965689 7.849671 -2.171235 -53.161004 -8.274003 21.275252 41.089008 5.492674 2.062564 -19.623925 0.000000 -0.000000 0.000000 -10.278894 -4.902023 8.293118 -2.290134 9.864564 32.949535 19.759020 6.196935 6.486719 0.000000 -0.000000 0.000000 -3.511918 16.419502 20.273715 -1.379911 0.256301 -1.618823 0.350458 4.434864 -1.474926 -5.270648 -6.071981 -12.740332 3.310195 -5.476658 -4.048028 -11.862449 8.596514 7.818235 -55.381340 24.878480 7.277897 -132.989528 -74.031056 158.330413 17.097754 -16.131540 -29.744745 12.322120 6.722871 -0.669493 68.405429 4.067808 16.337105 -150.013827 77.230703 -127.519919 -0.425493 14.196727 -4.609944 
2.062762 0.120536 0.863991 -99.451101 -4.747102 104.486168 5.739007 -4.801097 -50.729325 -7.612891 20.041718 45.004979 10.261015 4.063166 -24.207591 0.000000 -0.000000 0.000000 -7.394312 -2.339292 3.276735 -2.078307 8.866474 43.084572 16.905707 -0.780893 17.958576 0.000000 -0.000000 0.000000 -4.795394 13.952417 21.028306 -1.134123 -0.307734 -4.024514 0.422881 3.254100 -0.298358 -4.611229 -7.512255 -13.856417 3.888957 -3.636518 -3.713190 -12.463497 8.277609 7.878557 -57.889542 20.625142 7.124722 -121.831727 -77.357546 147.418698 15.258491 -16.352758 -28.804604 12.269819 5.148593 -0.925692 68.861086 2.388918 18.523814 -142.493661 79.978886 -118.626661 1.769234 14.006330 -4.887262 
1.986913 0.124176 0.866156 -95.287040 -5.594164 103.668937 3.032272 -8.061373 -46.532296 -8.346026 16.770407 47.431570 13.093078 6.882954 -28.025396 0.000000 -0.000000 0.000000 -5.527398 0.473906 -4.369787 -1.957310 3.415804 60.079965 9.523021 -6.730872 11.615385 0.000000 -0.000000 0.000000 -5.599706 10.199184 24.033686 -0.684505 -1.038191 -5.321831 0.087269 1.932156 0.298199 -3.292115 -7.208523 -16.074254 3.443169 -3.021630 -3.672948 -16.199797 5.620048 6.120588 -57.119436 14.098983 10.010867 -106.105767 -82.581073 130.784451 15.082550 -15.823066 -27.765283 14.762562 4.905973 -0.746819 67.235857 -0.412882 19.604107 -95.522298 82.178095 -72.025521 2.623078 13.293338 -6.586647 
1.911369 0.127876 0.867484 -91.166890 -5.953396 101.763323 -0.407931 -9.670544 -39.794572 -9.037600 11.747019 48.307402 14.101011 9.757253 -32.343888 0.000000 -0.000000 0.000000 -5.517822 1.428622 -14.679675 -2.825144 -1.510142 78.991672 5.153204 -9.654609 -1.281918 0.000000 -0.000000 0.000000 -5.376510 6.125559 28.019228 -0.381719 -1.673854 -5.324045 -0.575071 0.374748 -0.079371 -1.379198 -5.281828 -18.577503 2.432083 -2.913207 -3.068699 -22.122051 0.969535 3.907686 -52.595192 6.745295 13.851142 -53.754497 -87.047600 75.865395 15.569605 -15.381756 -26.053018 19.299635 5.216447 -0.349514 64.317817 -3.573317 19.052598 -46.531648 74.577137 -26.444905 1.317037 12.383341 -7.041587 
1.834840 0.131019 0.870986 -87.251019 -5.043087 99.894479 -2.843782 -8.442356 -31.563671 -9.966882 5.007220 47.461255 14.269183 11.681127 -36.122411 0.000000 -0.000000 0.000000 -6.069243 1.412634 -27.882597 -2.586519 -5.001419 95.817701 2.453403 -9.782385 -11.607592 0.000000 -0.000000 0.000000 -4.190100 1.407203 31.543221 0.003399 -1.801143 -5.809748 -0.872195 -1.210390 -0.347968 -0.390234 -3.183385 -20.494430 2.154127 -3.040912 -1.938768 -25.342642 -3.464834 2.144337 -50.696540 -0.620718 15.862449 36.745050 -87.236690 -15.367638 16.871202 -15.164254 -24.047274 22.616756 5.014659 0.753523 61.104108 -7.284765 16.534145 -33.087003 65.158052 -16.304615 -2.147266 12.177552 -5.114503 
1.753625 0.134201 0.879569 -83.088752 -2.755050 98.073385 -2.706890 -5.336500 -21.631369 -10.939656 -3.221168 44.079065 13.592726 12.291106 -38.603825 0.000000 -0.000000 0.000000 -7.115435 0.650438 -42.222485 -2.332482 -8.906367 107.413116 0.792409 -9.224929 -20.228187 0.000000 -0.000000 0.000000 -2.426827 -3.943049 34.250853 1.092746 -0.997254 -7.017525 0.029258 -2.507259 0.366683 -1.529677 -1.839427 -21.321939 1.762844 -2.734328 -1.738978 -23.691664 -5.027134 0.606342 -56.743768 -8.080799 16.615332 129.569398 -84.558939 -105.840362 18.912122 -14.439420 -24.487089 22.039179 2.169488 2.239455 57.561869 -12.890904 13.274840 -28.710270 66.660447 -12.422553 -5.122946 13.314383 -6.519444 
